<?xml version="1.0" standalone="no"?><!DOCTYPE svg PUBLIC "-//W3C//DTD SVG 1.1//EN" "http://www.w3.org/Graphics/SVG/1.1/DTD/svg11.dtd"><svg t="1746441550772" class="icon" viewBox="0 0 1024 1024" version="1.1" xmlns="http://www.w3.org/2000/svg" p-id="6121" xmlns:xlink="http://www.w3.org/1999/xlink" width="200" height="200"><path d="M947.2 102.4c-6.4-6.4-19.2-6.4-32-6.4-121.6 51.2-268.8 25.6-358.4-70.4L537.6 6.4c-12.8-6.4-38.4-6.4-51.2 0l-19.2 25.6c-96 89.6-236.8 121.6-358.4 64-12.8-6.4-25.6 0-32 6.4-6.4 6.4-12.8 19.2-12.8 32l25.6 275.2c25.6 262.4 172.8 492.8 403.2 614.4H512c6.4 0 12.8 0 12.8-6.4 230.4-128 384-358.4 403.2-614.4l32-268.8c0-12.8-6.4-25.6-12.8-32z m-76.8 294.4c-19.2 230.4-153.6 441.6-358.4 556.8-204.8-115.2-332.8-326.4-358.4-556.8l-19.2-224c134.4 38.4 275.2 0 377.6-96 102.4 102.4 243.2 134.4 377.6 96l-19.2 224z" p-id="6122" fill="#1296db"></path><path d="M710.4 326.4L480 563.2 377.6 454.4c-12.8-6.4-38.4-6.4-51.2 0s-6.4 38.4 0 51.2l128 128c6.4 6.4 19.2 6.4 25.6 6.4s19.2 0 25.6-6.4l256-256c12.8-12.8 12.8-32 0-44.8s-38.4-12.8-51.2-6.4z" p-id="6123" fill="#1296db"></path></svg>